<svg width="296" height="46" viewBox="0 0 296 46" fill="none" xmlns="http://www.w3.org/2000/svg">
<g filter="url(#filter0_b_36_47)">
<rect width="296" height="46" fill="white" fill-opacity="0.2"/>
</g>
<path d="M23 9.875C15.752 9.875 9.875 15.752 9.875 23C9.875 30.248 15.752 36.125 23 36.125C30.248 36.125 36.125 30.248 36.125 23C36.125 15.752 30.248 9.875 23 9.875ZM27.2217 23.2021L20.8232 27.8574C20.7882 27.8826 20.7468 27.8977 20.7037 27.9009C20.6607 27.9042 20.6175 27.8955 20.5791 27.8758C20.5406 27.8561 20.5083 27.8262 20.4858 27.7894C20.4632 27.7525 20.4512 27.7102 20.4512 27.667V18.3623C20.451 18.319 20.4629 18.2765 20.4854 18.2396C20.5079 18.2026 20.5402 18.1726 20.5788 18.1529C20.6173 18.1332 20.6605 18.1245 20.7037 18.1279C20.7468 18.1312 20.7882 18.1464 20.8232 18.1719L27.2217 22.8242C27.2519 22.8456 27.2766 22.8739 27.2936 22.9068C27.3106 22.9397 27.3195 22.9762 27.3195 23.0132C27.3195 23.0502 27.3106 23.0867 27.2936 23.1196C27.2766 23.1525 27.2519 23.1808 27.2217 23.2021Z" fill="#113A2D"/>
<path fill-rule="evenodd" clip-rule="evenodd" d="M62.0833 10C62.3707 10 62.6462 10.1141 62.8494 10.3173C63.0525 10.5205 63.1667 10.796 63.1667 11.0833V34.9167C63.1667 35.204 63.0525 35.4795 62.8494 35.6827C62.6462 35.8859 62.3707 36 62.0833 36C61.796 36 61.5205 35.8859 61.3173 35.6827C61.1141 35.4795 61 35.204 61 34.9167V11.0833C61 10.796 61.1141 10.5205 61.3173 10.3173C61.5205 10.1141 61.796 10 62.0833 10ZM57.75 14.3333C58.0373 14.3333 58.3129 14.4475 58.516 14.6506C58.7192 14.8538 58.8333 15.1293 58.8333 15.4167V30.5833C58.8333 30.8707 58.7192 31.1462 58.516 31.3494C58.3129 31.5525 58.0373 31.6667 57.75 31.6667C57.4627 31.6667 57.1871 31.5525 56.984 31.3494C56.7808 31.1462 56.6667 30.8707 56.6667 30.5833V15.4167C56.6667 15.1293 56.7808 14.8538 56.984 14.6506C57.1871 14.4475 57.4627 14.3333 57.75 14.3333ZM66.4167 14.3333C66.704 14.3333 66.9795 14.4475 67.1827 14.6506C67.3859 14.8538 67.5 15.1293 67.5 15.4167V30.5833C67.5 30.8707 67.3859 31.1462 67.1827 31.3494C66.9795 31.5525 66.704 31.6667 66.4167 31.6667C66.1293 31.6667 65.8538 31.5525 65.6506 31.3494C65.4475 31.1462 65.3333 30.8707 65.3333 30.5833V15.4167C65.3333 15.1293 65.4475 14.8538 65.6506 14.6506C65.8538 14.4475 66.1293 14.3333 66.4167 14.3333ZM53.4167 17.5833C53.704 17.5833 53.9795 17.6975 54.1827 17.9006C54.3859 18.1038 54.5 18.3793 54.5 18.6667V27.3333C54.5 27.6207 54.3859 27.8962 54.1827 28.0994C53.9795 28.3025 53.704 28.4167 53.4167 28.4167C53.1293 28.4167 52.8538 28.3025 52.6506 28.0994C52.4475 27.8962 52.3333 27.6207 52.3333 27.3333V18.6667C52.3333 18.3793 52.4475 18.1038 52.6506 17.9006C52.8538 17.6975 53.1293 17.5833 53.4167 17.5833ZM70.75 17.5833C71.0373 17.5833 71.3129 17.6975 71.516 17.9006C71.7192 18.1038 71.8333 18.3793 71.8333 18.6667V27.3333C71.8333 27.6207 71.7192 27.8962 71.516 28.0994C71.3129 28.3025 71.0373 28.4167 70.75 28.4167C70.4627 28.4167 70.1871 28.3025 69.984 28.0994C69.7808 27.8962 69.6667 27.6207 69.6667 27.3333V18.6667C69.6667 18.3793 69.7808 18.1038 69.984 17.9006C70.1871 17.6975 70.4627 17.5833 70.75 17.5833ZM49.0833 19.75C49.3707 19.75 49.6462 19.8641 49.8494 20.0673C50.0525 20.2705 50.1667 20.546 50.1667 20.8333V25.1667C50.1667 25.454 50.0525 25.7295 49.8494 25.9327C49.6462 26.1359 49.3707 26.25 49.0833 26.25C48.796 26.25 48.5205 26.1359 48.3173 25.9327C48.1141 25.7295 48 25.454 48 25.1667V20.8333C48 20.546 48.1141 20.2705 48.3173 20.0673C48.5205 19.8641 48.796 19.75 49.0833 19.75ZM75.0833 19.75C75.3707 19.75 75.6462 19.8641 75.8494 20.0673C76.0525 20.2705 76.1667 20.546 76.1667 20.8333V25.1667C76.1667 25.454 76.0525 25.7295 75.8494 25.9327C75.6462 26.1359 75.3707 26.25 75.0833 26.25C74.796 26.25 74.5205 26.1359 74.3173 25.9327C74.1141 25.7295 74 25.454 74 25.1667V20.8333C74 20.546 74.1141 20.2705 74.3173 20.0673C74.5205 19.8641 74.796 19.75 75.0833 19.75Z" fill="white"/>
<path fill-rule="evenodd" clip-rule="evenodd" d="M88.0833 10C88.3707 10 88.6462 10.1141 88.8494 10.3173C89.0525 10.5205 89.1667 10.796 89.1667 11.0833V34.9167C89.1667 35.204 89.0525 35.4795 88.8494 35.6827C88.6462 35.8859 88.3707 36 88.0833 36C87.796 36 87.5205 35.8859 87.3173 35.6827C87.1141 35.4795 87 35.204 87 34.9167V11.0833C87 10.796 87.1141 10.5205 87.3173 10.3173C87.5205 10.1141 87.796 10 88.0833 10ZM83.75 14.3333C84.0373 14.3333 84.3129 14.4475 84.516 14.6506C84.7192 14.8538 84.8333 15.1293 84.8333 15.4167V30.5833C84.8333 30.8707 84.7192 31.1462 84.516 31.3494C84.3129 31.5525 84.0373 31.6667 83.75 31.6667C83.4627 31.6667 83.1871 31.5525 82.984 31.3494C82.7808 31.1462 82.6667 30.8707 82.6667 30.5833V15.4167C82.6667 15.1293 82.7808 14.8538 82.984 14.6506C83.1871 14.4475 83.4627 14.3333 83.75 14.3333ZM92.4167 14.3333C92.704 14.3333 92.9795 14.4475 93.1827 14.6506C93.3859 14.8538 93.5 15.1293 93.5 15.4167V30.5833C93.5 30.8707 93.3859 31.1462 93.1827 31.3494C92.9795 31.5525 92.704 31.6667 92.4167 31.6667C92.1293 31.6667 91.8538 31.5525 91.6506 31.3494C91.4475 31.1462 91.3333 30.8707 91.3333 30.5833V15.4167C91.3333 15.1293 91.4475 14.8538 91.6506 14.6506C91.8538 14.4475 92.1293 14.3333 92.4167 14.3333ZM79.4167 17.5833C79.704 17.5833 79.9795 17.6975 80.1827 17.9006C80.3859 18.1038 80.5 18.3793 80.5 18.6667V27.3333C80.5 27.6207 80.3859 27.8962 80.1827 28.0994C79.9795 28.3025 79.704 28.4167 79.4167 28.4167C79.1293 28.4167 78.8538 28.3025 78.6506 28.0994C78.4475 27.8962 78.3333 27.6207 78.3333 27.3333V18.6667C78.3333 18.3793 78.4475 18.1038 78.6506 17.9006C78.8538 17.6975 79.1293 17.5833 79.4167 17.5833ZM96.75 17.5833C97.0373 17.5833 97.3129 17.6975 97.516 17.9006C97.7192 18.1038 97.8333 18.3793 97.8333 18.6667V27.3333C97.8333 27.6207 97.7192 27.8962 97.516 28.0994C97.3129 28.3025 97.0373 28.4167 96.75 28.4167C96.4627 28.4167 96.1871 28.3025 95.984 28.0994C95.7808 27.8962 95.6667 27.6207 95.6667 27.3333V18.6667C95.6667 18.3793 95.7808 18.1038 95.984 17.9006C96.1871 17.6975 96.4627 17.5833 96.75 17.5833ZM75.0833 19.75C75.3707 19.75 75.6462 19.8641 75.8494 20.0673C76.0525 20.2705 76.1667 20.546 76.1667 20.8333V25.1667C76.1667 25.454 76.0525 25.7295 75.8494 25.9327C75.6462 26.1359 75.3707 26.25 75.0833 26.25C74.796 26.25 74.5205 26.1359 74.3173 25.9327C74.1141 25.7295 74 25.454 74 25.1667V20.8333C74 20.546 74.1141 20.2705 74.3173 20.0673C74.5205 19.8641 74.796 19.75 75.0833 19.75ZM101.083 19.75C101.371 19.75 101.646 19.8641 101.849 20.0673C102.053 20.2705 102.167 20.546 102.167 20.8333V25.1667C102.167 25.454 102.053 25.7295 101.849 25.9327C101.646 26.1359 101.371 26.25 101.083 26.25C100.796 26.25 100.52 26.1359 100.317 25.9327C100.114 25.7295 100 25.454 100 25.1667V20.8333C100 20.546 100.114 20.2705 100.317 20.0673C100.52 19.8641 100.796 19.75 101.083 19.75Z" fill="white"/>
<path fill-rule="evenodd" clip-rule="evenodd" d="M114.083 10C114.371 10 114.646 10.1141 114.849 10.3173C115.053 10.5205 115.167 10.796 115.167 11.0833V34.9167C115.167 35.204 115.053 35.4795 114.849 35.6827C114.646 35.8859 114.371 36 114.083 36C113.796 36 113.52 35.8859 113.317 35.6827C113.114 35.4795 113 35.204 113 34.9167V11.0833C113 10.796 113.114 10.5205 113.317 10.3173C113.52 10.1141 113.796 10 114.083 10ZM109.75 14.3333C110.037 14.3333 110.313 14.4475 110.516 14.6506C110.719 14.8538 110.833 15.1293 110.833 15.4167V30.5833C110.833 30.8707 110.719 31.1462 110.516 31.3494C110.313 31.5525 110.037 31.6667 109.75 31.6667C109.463 31.6667 109.187 31.5525 108.984 31.3494C108.781 31.1462 108.667 30.8707 108.667 30.5833V15.4167C108.667 15.1293 108.781 14.8538 108.984 14.6506C109.187 14.4475 109.463 14.3333 109.75 14.3333ZM118.417 14.3333C118.704 14.3333 118.98 14.4475 119.183 14.6506C119.386 14.8538 119.5 15.1293 119.5 15.4167V30.5833C119.5 30.8707 119.386 31.1462 119.183 31.3494C118.98 31.5525 118.704 31.6667 118.417 31.6667C118.129 31.6667 117.854 31.5525 117.651 31.3494C117.447 31.1462 117.333 30.8707 117.333 30.5833V15.4167C117.333 15.1293 117.447 14.8538 117.651 14.6506C117.854 14.4475 118.129 14.3333 118.417 14.3333ZM105.417 17.5833C105.704 17.5833 105.98 17.6975 106.183 17.9006C106.386 18.1038 106.5 18.3793 106.5 18.6667V27.3333C106.5 27.6207 106.386 27.8962 106.183 28.0994C105.98 28.3025 105.704 28.4167 105.417 28.4167C105.129 28.4167 104.854 28.3025 104.651 28.0994C104.447 27.8962 104.333 27.6207 104.333 27.3333V18.6667C104.333 18.3793 104.447 18.1038 104.651 17.9006C104.854 17.6975 105.129 17.5833 105.417 17.5833ZM122.75 17.5833C123.037 17.5833 123.313 17.6975 123.516 17.9006C123.719 18.1038 123.833 18.3793 123.833 18.6667V27.3333C123.833 27.6207 123.719 27.8962 123.516 28.0994C123.313 28.3025 123.037 28.4167 122.75 28.4167C122.463 28.4167 122.187 28.3025 121.984 28.0994C121.781 27.8962 121.667 27.6207 121.667 27.3333V18.6667C121.667 18.3793 121.781 18.1038 121.984 17.9006C122.187 17.6975 122.463 17.5833 122.75 17.5833ZM101.083 19.75C101.371 19.75 101.646 19.8641 101.849 20.0673C102.053 20.2705 102.167 20.546 102.167 20.8333V25.1667C102.167 25.454 102.053 25.7295 101.849 25.9327C101.646 26.1359 101.371 26.25 101.083 26.25C100.796 26.25 100.52 26.1359 100.317 25.9327C100.114 25.7295 100 25.454 100 25.1667V20.8333C100 20.546 100.114 20.2705 100.317 20.0673C100.52 19.8641 100.796 19.75 101.083 19.75ZM127.083 19.75C127.371 19.75 127.646 19.8641 127.849 20.0673C128.053 20.2705 128.167 20.546 128.167 20.8333V25.1667C128.167 25.454 128.053 25.7295 127.849 25.9327C127.646 26.1359 127.371 26.25 127.083 26.25C126.796 26.25 126.52 26.1359 126.317 25.9327C126.114 25.7295 126 25.454 126 25.1667V20.8333C126 20.546 126.114 20.2705 126.317 20.0673C126.52 19.8641 126.796 19.75 127.083 19.75Z" fill="white"/>
<path fill-rule="evenodd" clip-rule="evenodd" d="M140.083 10C140.371 10 140.646 10.1141 140.849 10.3173C141.053 10.5205 141.167 10.796 141.167 11.0833V34.9167C141.167 35.204 141.053 35.4795 140.849 35.6827C140.646 35.8859 140.371 36 140.083 36C139.796 36 139.52 35.8859 139.317 35.6827C139.114 35.4795 139 35.204 139 34.9167V11.0833C139 10.796 139.114 10.5205 139.317 10.3173C139.52 10.1141 139.796 10 140.083 10ZM135.75 14.3333C136.037 14.3333 136.313 14.4475 136.516 14.6506C136.719 14.8538 136.833 15.1293 136.833 15.4167V30.5833C136.833 30.8707 136.719 31.1462 136.516 31.3494C136.313 31.5525 136.037 31.6667 135.75 31.6667C135.463 31.6667 135.187 31.5525 134.984 31.3494C134.781 31.1462 134.667 30.8707 134.667 30.5833V15.4167C134.667 15.1293 134.781 14.8538 134.984 14.6506C135.187 14.4475 135.463 14.3333 135.75 14.3333ZM144.417 14.3333C144.704 14.3333 144.98 14.4475 145.183 14.6506C145.386 14.8538 145.5 15.1293 145.5 15.4167V30.5833C145.5 30.8707 145.386 31.1462 145.183 31.3494C144.98 31.5525 144.704 31.6667 144.417 31.6667C144.129 31.6667 143.854 31.5525 143.651 31.3494C143.447 31.1462 143.333 30.8707 143.333 30.5833V15.4167C143.333 15.1293 143.447 14.8538 143.651 14.6506C143.854 14.4475 144.129 14.3333 144.417 14.3333ZM131.417 17.5833C131.704 17.5833 131.98 17.6975 132.183 17.9006C132.386 18.1038 132.5 18.3793 132.5 18.6667V27.3333C132.5 27.6207 132.386 27.8962 132.183 28.0994C131.98 28.3025 131.704 28.4167 131.417 28.4167C131.129 28.4167 130.854 28.3025 130.651 28.0994C130.447 27.8962 130.333 27.6207 130.333 27.3333V18.6667C130.333 18.3793 130.447 18.1038 130.651 17.9006C130.854 17.6975 131.129 17.5833 131.417 17.5833ZM148.75 17.5833C149.037 17.5833 149.313 17.6975 149.516 17.9006C149.719 18.1038 149.833 18.3793 149.833 18.6667V27.3333C149.833 27.6207 149.719 27.8962 149.516 28.0994C149.313 28.3025 149.037 28.4167 148.75 28.4167C148.463 28.4167 148.187 28.3025 147.984 28.0994C147.781 27.8962 147.667 27.6207 147.667 27.3333V18.6667C147.667 18.3793 147.781 18.1038 147.984 17.9006C148.187 17.6975 148.463 17.5833 148.75 17.5833ZM127.083 19.75C127.371 19.75 127.646 19.8641 127.849 20.0673C128.053 20.2705 128.167 20.546 128.167 20.8333V25.1667C128.167 25.454 128.053 25.7295 127.849 25.9327C127.646 26.1359 127.371 26.25 127.083 26.25C126.796 26.25 126.52 26.1359 126.317 25.9327C126.114 25.7295 126 25.454 126 25.1667V20.8333C126 20.546 126.114 20.2705 126.317 20.0673C126.52 19.8641 126.796 19.75 127.083 19.75ZM153.083 19.75C153.371 19.75 153.646 19.8641 153.849 20.0673C154.053 20.2705 154.167 20.546 154.167 20.8333V25.1667C154.167 25.454 154.053 25.7295 153.849 25.9327C153.646 26.1359 153.371 26.25 153.083 26.25C152.796 26.25 152.52 26.1359 152.317 25.9327C152.114 25.7295 152 25.454 152 25.1667V20.8333C152 20.546 152.114 20.2705 152.317 20.0673C152.52 19.8641 152.796 19.75 153.083 19.75Z" fill="white"/>
<path fill-rule="evenodd" clip-rule="evenodd" d="M166.083 10C166.371 10 166.646 10.1141 166.849 10.3173C167.053 10.5205 167.167 10.796 167.167 11.0833V34.9167C167.167 35.204 167.053 35.4795 166.849 35.6827C166.646 35.8859 166.371 36 166.083 36C165.796 36 165.52 35.8859 165.317 35.6827C165.114 35.4795 165 35.204 165 34.9167V11.0833C165 10.796 165.114 10.5205 165.317 10.3173C165.52 10.1141 165.796 10 166.083 10ZM161.75 14.3333C162.037 14.3333 162.313 14.4475 162.516 14.6506C162.719 14.8538 162.833 15.1293 162.833 15.4167V30.5833C162.833 30.8707 162.719 31.1462 162.516 31.3494C162.313 31.5525 162.037 31.6667 161.75 31.6667C161.463 31.6667 161.187 31.5525 160.984 31.3494C160.781 31.1462 160.667 30.8707 160.667 30.5833V15.4167C160.667 15.1293 160.781 14.8538 160.984 14.6506C161.187 14.4475 161.463 14.3333 161.75 14.3333ZM170.417 14.3333C170.704 14.3333 170.98 14.4475 171.183 14.6506C171.386 14.8538 171.5 15.1293 171.5 15.4167V30.5833C171.5 30.8707 171.386 31.1462 171.183 31.3494C170.98 31.5525 170.704 31.6667 170.417 31.6667C170.129 31.6667 169.854 31.5525 169.651 31.3494C169.447 31.1462 169.333 30.8707 169.333 30.5833V15.4167C169.333 15.1293 169.447 14.8538 169.651 14.6506C169.854 14.4475 170.129 14.3333 170.417 14.3333ZM157.417 17.5833C157.704 17.5833 157.98 17.6975 158.183 17.9006C158.386 18.1038 158.5 18.3793 158.5 18.6667V27.3333C158.5 27.6207 158.386 27.8962 158.183 28.0994C157.98 28.3025 157.704 28.4167 157.417 28.4167C157.129 28.4167 156.854 28.3025 156.651 28.0994C156.447 27.8962 156.333 27.6207 156.333 27.3333V18.6667C156.333 18.3793 156.447 18.1038 156.651 17.9006C156.854 17.6975 157.129 17.5833 157.417 17.5833ZM174.75 17.5833C175.037 17.5833 175.313 17.6975 175.516 17.9006C175.719 18.1038 175.833 18.3793 175.833 18.6667V27.3333C175.833 27.6207 175.719 27.8962 175.516 28.0994C175.313 28.3025 175.037 28.4167 174.75 28.4167C174.463 28.4167 174.187 28.3025 173.984 28.0994C173.781 27.8962 173.667 27.6207 173.667 27.3333V18.6667C173.667 18.3793 173.781 18.1038 173.984 17.9006C174.187 17.6975 174.463 17.5833 174.75 17.5833ZM153.083 19.75C153.371 19.75 153.646 19.8641 153.849 20.0673C154.053 20.2705 154.167 20.546 154.167 20.8333V25.1667C154.167 25.454 154.053 25.7295 153.849 25.9327C153.646 26.1359 153.371 26.25 153.083 26.25C152.796 26.25 152.52 26.1359 152.317 25.9327C152.114 25.7295 152 25.454 152 25.1667V20.8333C152 20.546 152.114 20.2705 152.317 20.0673C152.52 19.8641 152.796 19.75 153.083 19.75ZM179.083 19.75C179.371 19.75 179.646 19.8641 179.849 20.0673C180.053 20.2705 180.167 20.546 180.167 20.8333V25.1667C180.167 25.454 180.053 25.7295 179.849 25.9327C179.646 26.1359 179.371 26.25 179.083 26.25C178.796 26.25 178.52 26.1359 178.317 25.9327C178.114 25.7295 178 25.454 178 25.1667V20.8333C178 20.546 178.114 20.2705 178.317 20.0673C178.52 19.8641 178.796 19.75 179.083 19.75Z" fill="white"/>
<path fill-rule="evenodd" clip-rule="evenodd" d="M192.083 10C192.371 10 192.646 10.1141 192.849 10.3173C193.053 10.5205 193.167 10.796 193.167 11.0833V34.9167C193.167 35.204 193.053 35.4795 192.849 35.6827C192.646 35.8859 192.371 36 192.083 36C191.796 36 191.52 35.8859 191.317 35.6827C191.114 35.4795 191 35.204 191 34.9167V11.0833C191 10.796 191.114 10.5205 191.317 10.3173C191.52 10.1141 191.796 10 192.083 10ZM187.75 14.3333C188.037 14.3333 188.313 14.4475 188.516 14.6506C188.719 14.8538 188.833 15.1293 188.833 15.4167V30.5833C188.833 30.8707 188.719 31.1462 188.516 31.3494C188.313 31.5525 188.037 31.6667 187.75 31.6667C187.463 31.6667 187.187 31.5525 186.984 31.3494C186.781 31.1462 186.667 30.8707 186.667 30.5833V15.4167C186.667 15.1293 186.781 14.8538 186.984 14.6506C187.187 14.4475 187.463 14.3333 187.75 14.3333ZM196.417 14.3333C196.704 14.3333 196.98 14.4475 197.183 14.6506C197.386 14.8538 197.5 15.1293 197.5 15.4167V30.5833C197.5 30.8707 197.386 31.1462 197.183 31.3494C196.98 31.5525 196.704 31.6667 196.417 31.6667C196.129 31.6667 195.854 31.5525 195.651 31.3494C195.447 31.1462 195.333 30.8707 195.333 30.5833V15.4167C195.333 15.1293 195.447 14.8538 195.651 14.6506C195.854 14.4475 196.129 14.3333 196.417 14.3333ZM183.417 17.5833C183.704 17.5833 183.98 17.6975 184.183 17.9006C184.386 18.1038 184.5 18.3793 184.5 18.6667V27.3333C184.5 27.6207 184.386 27.8962 184.183 28.0994C183.98 28.3025 183.704 28.4167 183.417 28.4167C183.129 28.4167 182.854 28.3025 182.651 28.0994C182.447 27.8962 182.333 27.6207 182.333 27.3333V18.6667C182.333 18.3793 182.447 18.1038 182.651 17.9006C182.854 17.6975 183.129 17.5833 183.417 17.5833ZM200.75 17.5833C201.037 17.5833 201.313 17.6975 201.516 17.9006C201.719 18.1038 201.833 18.3793 201.833 18.6667V27.3333C201.833 27.6207 201.719 27.8962 201.516 28.0994C201.313 28.3025 201.037 28.4167 200.75 28.4167C200.463 28.4167 200.187 28.3025 199.984 28.0994C199.781 27.8962 199.667 27.6207 199.667 27.3333V18.6667C199.667 18.3793 199.781 18.1038 199.984 17.9006C200.187 17.6975 200.463 17.5833 200.75 17.5833ZM179.083 19.75C179.371 19.75 179.646 19.8641 179.849 20.0673C180.053 20.2705 180.167 20.546 180.167 20.8333V25.1667C180.167 25.454 180.053 25.7295 179.849 25.9327C179.646 26.1359 179.371 26.25 179.083 26.25C178.796 26.25 178.52 26.1359 178.317 25.9327C178.114 25.7295 178 25.454 178 25.1667V20.8333C178 20.546 178.114 20.2705 178.317 20.0673C178.52 19.8641 178.796 19.75 179.083 19.75ZM205.083 19.75C205.371 19.75 205.646 19.8641 205.849 20.0673C206.053 20.2705 206.167 20.546 206.167 20.8333V25.1667C206.167 25.454 206.053 25.7295 205.849 25.9327C205.646 26.1359 205.371 26.25 205.083 26.25C204.796 26.25 204.52 26.1359 204.317 25.9327C204.114 25.7295 204 25.454 204 25.1667V20.8333C204 20.546 204.114 20.2705 204.317 20.0673C204.52 19.8641 204.796 19.75 205.083 19.75Z" fill="white"/>
<path fill-rule="evenodd" clip-rule="evenodd" d="M218.083 10C218.371 10 218.646 10.1141 218.849 10.3173C219.053 10.5205 219.167 10.796 219.167 11.0833V34.9167C219.167 35.204 219.053 35.4795 218.849 35.6827C218.646 35.8859 218.371 36 218.083 36C217.796 36 217.52 35.8859 217.317 35.6827C217.114 35.4795 217 35.204 217 34.9167V11.0833C217 10.796 217.114 10.5205 217.317 10.3173C217.52 10.1141 217.796 10 218.083 10ZM213.75 14.3333C214.037 14.3333 214.313 14.4475 214.516 14.6506C214.719 14.8538 214.833 15.1293 214.833 15.4167V30.5833C214.833 30.8707 214.719 31.1462 214.516 31.3494C214.313 31.5525 214.037 31.6667 213.75 31.6667C213.463 31.6667 213.187 31.5525 212.984 31.3494C212.781 31.1462 212.667 30.8707 212.667 30.5833V15.4167C212.667 15.1293 212.781 14.8538 212.984 14.6506C213.187 14.4475 213.463 14.3333 213.75 14.3333ZM222.417 14.3333C222.704 14.3333 222.98 14.4475 223.183 14.6506C223.386 14.8538 223.5 15.1293 223.5 15.4167V30.5833C223.5 30.8707 223.386 31.1462 223.183 31.3494C222.98 31.5525 222.704 31.6667 222.417 31.6667C222.129 31.6667 221.854 31.5525 221.651 31.3494C221.447 31.1462 221.333 30.8707 221.333 30.5833V15.4167C221.333 15.1293 221.447 14.8538 221.651 14.6506C221.854 14.4475 222.129 14.3333 222.417 14.3333ZM209.417 17.5833C209.704 17.5833 209.98 17.6975 210.183 17.9006C210.386 18.1038 210.5 18.3793 210.5 18.6667V27.3333C210.5 27.6207 210.386 27.8962 210.183 28.0994C209.98 28.3025 209.704 28.4167 209.417 28.4167C209.129 28.4167 208.854 28.3025 208.651 28.0994C208.447 27.8962 208.333 27.6207 208.333 27.3333V18.6667C208.333 18.3793 208.447 18.1038 208.651 17.9006C208.854 17.6975 209.129 17.5833 209.417 17.5833ZM226.75 17.5833C227.037 17.5833 227.313 17.6975 227.516 17.9006C227.719 18.1038 227.833 18.3793 227.833 18.6667V27.3333C227.833 27.6207 227.719 27.8962 227.516 28.0994C227.313 28.3025 227.037 28.4167 226.75 28.4167C226.463 28.4167 226.187 28.3025 225.984 28.0994C225.781 27.8962 225.667 27.6207 225.667 27.3333V18.6667C225.667 18.3793 225.781 18.1038 225.984 17.9006C226.187 17.6975 226.463 17.5833 226.75 17.5833ZM205.083 19.75C205.371 19.75 205.646 19.8641 205.849 20.0673C206.053 20.2705 206.167 20.546 206.167 20.8333V25.1667C206.167 25.454 206.053 25.7295 205.849 25.9327C205.646 26.1359 205.371 26.25 205.083 26.25C204.796 26.25 204.52 26.1359 204.317 25.9327C204.114 25.7295 204 25.454 204 25.1667V20.8333C204 20.546 204.114 20.2705 204.317 20.0673C204.52 19.8641 204.796 19.75 205.083 19.75ZM231.083 19.75C231.371 19.75 231.646 19.8641 231.849 20.0673C232.053 20.2705 232.167 20.546 232.167 20.8333V25.1667C232.167 25.454 232.053 25.7295 231.849 25.9327C231.646 26.1359 231.371 26.25 231.083 26.25C230.796 26.25 230.52 26.1359 230.317 25.9327C230.114 25.7295 230 25.454 230 25.1667V20.8333C230 20.546 230.114 20.2705 230.317 20.0673C230.52 19.8641 230.796 19.75 231.083 19.75Z" fill="white"/>
<path fill-rule="evenodd" clip-rule="evenodd" d="M244.083 10C244.371 10 244.646 10.1141 244.849 10.3173C245.053 10.5205 245.167 10.796 245.167 11.0833V34.9167C245.167 35.204 245.053 35.4795 244.849 35.6827C244.646 35.8859 244.371 36 244.083 36C243.796 36 243.52 35.8859 243.317 35.6827C243.114 35.4795 243 35.204 243 34.9167V11.0833C243 10.796 243.114 10.5205 243.317 10.3173C243.52 10.1141 243.796 10 244.083 10ZM239.75 14.3333C240.037 14.3333 240.313 14.4475 240.516 14.6506C240.719 14.8538 240.833 15.1293 240.833 15.4167V30.5833C240.833 30.8707 240.719 31.1462 240.516 31.3494C240.313 31.5525 240.037 31.6667 239.75 31.6667C239.463 31.6667 239.187 31.5525 238.984 31.3494C238.781 31.1462 238.667 30.8707 238.667 30.5833V15.4167C238.667 15.1293 238.781 14.8538 238.984 14.6506C239.187 14.4475 239.463 14.3333 239.75 14.3333ZM248.417 14.3333C248.704 14.3333 248.98 14.4475 249.183 14.6506C249.386 14.8538 249.5 15.1293 249.5 15.4167V30.5833C249.5 30.8707 249.386 31.1462 249.183 31.3494C248.98 31.5525 248.704 31.6667 248.417 31.6667C248.129 31.6667 247.854 31.5525 247.651 31.3494C247.447 31.1462 247.333 30.8707 247.333 30.5833V15.4167C247.333 15.1293 247.447 14.8538 247.651 14.6506C247.854 14.4475 248.129 14.3333 248.417 14.3333ZM235.417 17.5833C235.704 17.5833 235.98 17.6975 236.183 17.9006C236.386 18.1038 236.5 18.3793 236.5 18.6667V27.3333C236.5 27.6207 236.386 27.8962 236.183 28.0994C235.98 28.3025 235.704 28.4167 235.417 28.4167C235.129 28.4167 234.854 28.3025 234.651 28.0994C234.447 27.8962 234.333 27.6207 234.333 27.3333V18.6667C234.333 18.3793 234.447 18.1038 234.651 17.9006C234.854 17.6975 235.129 17.5833 235.417 17.5833ZM252.75 17.5833C253.037 17.5833 253.313 17.6975 253.516 17.9006C253.719 18.1038 253.833 18.3793 253.833 18.6667V27.3333C253.833 27.6207 253.719 27.8962 253.516 28.0994C253.313 28.3025 253.037 28.4167 252.75 28.4167C252.463 28.4167 252.187 28.3025 251.984 28.0994C251.781 27.8962 251.667 27.6207 251.667 27.3333V18.6667C251.667 18.3793 251.781 18.1038 251.984 17.9006C252.187 17.6975 252.463 17.5833 252.75 17.5833ZM231.083 19.75C231.371 19.75 231.646 19.8641 231.849 20.0673C232.053 20.2705 232.167 20.546 232.167 20.8333V25.1667C232.167 25.454 232.053 25.7295 231.849 25.9327C231.646 26.1359 231.371 26.25 231.083 26.25C230.796 26.25 230.52 26.1359 230.317 25.9327C230.114 25.7295 230 25.454 230 25.1667V20.8333C230 20.546 230.114 20.2705 230.317 20.0673C230.52 19.8641 230.796 19.75 231.083 19.75ZM257.083 19.75C257.371 19.75 257.646 19.8641 257.849 20.0673C258.053 20.2705 258.167 20.546 258.167 20.8333V25.1667C258.167 25.454 258.053 25.7295 257.849 25.9327C257.646 26.1359 257.371 26.25 257.083 26.25C256.796 26.25 256.52 26.1359 256.317 25.9327C256.114 25.7295 256 25.454 256 25.1667V20.8333C256 20.546 256.114 20.2705 256.317 20.0673C256.52 19.8641 256.796 19.75 257.083 19.75Z" fill="white"/>
<path fill-rule="evenodd" clip-rule="evenodd" d="M270.083 10C270.371 10 270.646 10.1141 270.849 10.3173C271.053 10.5205 271.167 10.796 271.167 11.0833V34.9167C271.167 35.204 271.053 35.4795 270.849 35.6827C270.646 35.8859 270.371 36 270.083 36C269.796 36 269.52 35.8859 269.317 35.6827C269.114 35.4795 269 35.204 269 34.9167V11.0833C269 10.796 269.114 10.5205 269.317 10.3173C269.52 10.1141 269.796 10 270.083 10ZM265.75 14.3333C266.037 14.3333 266.313 14.4475 266.516 14.6506C266.719 14.8538 266.833 15.1293 266.833 15.4167V30.5833C266.833 30.8707 266.719 31.1462 266.516 31.3494C266.313 31.5525 266.037 31.6667 265.75 31.6667C265.463 31.6667 265.187 31.5525 264.984 31.3494C264.781 31.1462 264.667 30.8707 264.667 30.5833V15.4167C264.667 15.1293 264.781 14.8538 264.984 14.6506C265.187 14.4475 265.463 14.3333 265.75 14.3333ZM274.417 14.3333C274.704 14.3333 274.98 14.4475 275.183 14.6506C275.386 14.8538 275.5 15.1293 275.5 15.4167V30.5833C275.5 30.8707 275.386 31.1462 275.183 31.3494C274.98 31.5525 274.704 31.6667 274.417 31.6667C274.129 31.6667 273.854 31.5525 273.651 31.3494C273.447 31.1462 273.333 30.8707 273.333 30.5833V15.4167C273.333 15.1293 273.447 14.8538 273.651 14.6506C273.854 14.4475 274.129 14.3333 274.417 14.3333ZM261.417 17.5833C261.704 17.5833 261.98 17.6975 262.183 17.9006C262.386 18.1038 262.5 18.3793 262.5 18.6667V27.3333C262.5 27.6207 262.386 27.8962 262.183 28.0994C261.98 28.3025 261.704 28.4167 261.417 28.4167C261.129 28.4167 260.854 28.3025 260.651 28.0994C260.447 27.8962 260.333 27.6207 260.333 27.3333V18.6667C260.333 18.3793 260.447 18.1038 260.651 17.9006C260.854 17.6975 261.129 17.5833 261.417 17.5833ZM278.75 17.5833C279.037 17.5833 279.313 17.6975 279.516 17.9006C279.719 18.1038 279.833 18.3793 279.833 18.6667V27.3333C279.833 27.6207 279.719 27.8962 279.516 28.0994C279.313 28.3025 279.037 28.4167 278.75 28.4167C278.463 28.4167 278.187 28.3025 277.984 28.0994C277.781 27.8962 277.667 27.6207 277.667 27.3333V18.6667C277.667 18.3793 277.781 18.1038 277.984 17.9006C278.187 17.6975 278.463 17.5833 278.75 17.5833ZM257.083 19.75C257.371 19.75 257.646 19.8641 257.849 20.0673C258.053 20.2705 258.167 20.546 258.167 20.8333V25.1667C258.167 25.454 258.053 25.7295 257.849 25.9327C257.646 26.1359 257.371 26.25 257.083 26.25C256.796 26.25 256.52 26.1359 256.317 25.9327C256.114 25.7295 256 25.454 256 25.1667V20.8333C256 20.546 256.114 20.2705 256.317 20.0673C256.52 19.8641 256.796 19.75 257.083 19.75ZM283.083 19.75C283.371 19.75 283.646 19.8641 283.849 20.0673C284.053 20.2705 284.167 20.546 284.167 20.8333V25.1667C284.167 25.454 284.053 25.7295 283.849 25.9327C283.646 26.1359 283.371 26.25 283.083 26.25C282.796 26.25 282.52 26.1359 282.317 25.9327C282.114 25.7295 282 25.454 282 25.1667V20.8333C282 20.546 282.114 20.2705 282.317 20.0673C282.52 19.8641 282.796 19.75 283.083 19.75Z" fill="white"/>
<defs>
<filter id="filter0_b_36_47" x="-10" y="-10" width="316" height="66" filterUnits="userSpaceOnUse" color-interpolation-filters="sRGB">
<feFlood flood-opacity="0" result="BackgroundImageFix"/>
<feGaussianBlur in="BackgroundImageFix" stdDeviation="5"/>
<feComposite in2="SourceAlpha" operator="in" result="effect1_backgroundBlur_36_47"/>
<feBlend mode="normal" in="SourceGraphic" in2="effect1_backgroundBlur_36_47" result="shape"/>
</filter>
</defs>
</svg>
